<svg xmlns="http://www.w3.org/2000/svg" viewBox="0 0 760 544" width="760" role="img" aria-label="podup benchmark chart: podup leads every measured scenario in both memory and latency">
  <style>
    .card { fill:#0d1117; stroke:#30363d; }
    .t { fill:#e6edf3; font:600 13px ui-sans-serif,system-ui,sans-serif; }
    .l { fill:#8b949e; font:12px ui-sans-serif,system-ui,sans-serif; }
    .v { fill:#e6edf3; font:600 12px ui-monospace,monospace; }
  </style>
  <rect class="card" x="0.5" y="0.5" width="759" height="543" rx="10"/>
  <text class="t" x="24" y="30">podup vs docker-compose vs podman-compose — same rootless Podman</text>
  <text class="l" x="24" y="47">median of 10 measured runs · lower is better</text>
  <text class="t" x="24" y="72">memory per command</text>
  <text class="l" x="168" y="97" text-anchor="end">podup</text>
  <rect x="176" y="82" width="73" height="22" rx="3" fill="#3fb950"/>
  <text class="v" x="257" y="97">7.78 MiB</text>
  <text class="l" x="168" y="123" text-anchor="end">docker-compose</text>
  <rect x="176" y="108" width="270" height="22" rx="3" fill="#58a6ff"/>
  <text class="v" x="454" y="123">28.68 MiB</text>
  <text class="l" x="168" y="149" text-anchor="end">podman-compose</text>
  <rect x="176" y="134" width="488" height="22" rx="3" fill="#f778ba"/>
  <text class="v" x="672" y="149">51.68 MiB</text>
  <text class="t" x="24" y="188">up · 42 services</text>
  <text class="l" x="168" y="213" text-anchor="end">podup</text>
  <rect x="176" y="198" width="71" height="22" rx="3" fill="#3fb950"/>
  <text class="v" x="255" y="213">1.12 s</text>
  <text class="l" x="168" y="239" text-anchor="end">docker-compose</text>
  <rect x="176" y="224" width="98" height="22" rx="3" fill="#58a6ff"/>
  <text class="v" x="282" y="239">1.54 s</text>
  <text class="l" x="168" y="265" text-anchor="end">podman-compose</text>
  <rect x="176" y="250" width="488" height="22" rx="3" fill="#f778ba"/>
  <text class="v" x="672" y="265">7.69 s</text>
  <text class="t" x="24" y="304">up · 12 services</text>
  <text class="l" x="168" y="329" text-anchor="end">podup</text>
  <rect x="176" y="314" width="78" height="22" rx="3" fill="#3fb950"/>
  <text class="v" x="262" y="329">0.38 s</text>
  <text class="l" x="168" y="355" text-anchor="end">docker-compose</text>
  <rect x="176" y="340" width="100" height="22" rx="3" fill="#58a6ff"/>
  <text class="v" x="284" y="355">0.48 s</text>
  <text class="l" x="168" y="381" text-anchor="end">podman-compose</text>
  <rect x="176" y="366" width="488" height="22" rx="3" fill="#f778ba"/>
  <text class="v" x="672" y="381">2.37 s</text>
  <text class="t" x="24" y="420">config · parse only</text>
  <text class="l" x="168" y="445" text-anchor="end">podup</text>
  <rect x="176" y="430" width="2" height="22" rx="3" fill="#3fb950"/>
  <text class="v" x="186" y="445">&lt;0.01 s</text>
  <text class="l" x="168" y="471" text-anchor="end">docker-compose</text>
  <rect x="176" y="456" width="150" height="22" rx="3" fill="#58a6ff"/>
  <text class="v" x="334" y="471">0.04 s</text>
  <text class="l" x="168" y="497" text-anchor="end">podman-compose</text>
  <rect x="176" y="482" width="488" height="22" rx="3" fill="#f778ba"/>
  <text class="v" x="672" y="497">0.13 s</text>
</svg>
